<?xml version="1.0" encoding="UTF-8"?><svg id="Layer_2" xmlns="http://www.w3.org/2000/svg" width="26.11" height="28" viewBox="0 0 26.11 28"><defs><style>.cls-1{fill:#ff385c;stroke-width:0px;}</style></defs><g id="Layer_1-2"><path class="cls-1" d="M25.71,19.87c-.13-.35-.27-.69-.41-1.01-.21-.49-.44-.97-.66-1.44l-.02-.04c-1.94-4.2-4.03-8.47-6.19-12.67l-.09-.18c-.22-.43-.45-.87-.68-1.31-.28-.55-.62-1.07-1.01-1.55-.44-.53-.99-.95-1.61-1.24C14.42.15,13.74,0,13.05,0c-.69,0-1.36.15-1.99.44-.62.29-1.17.71-1.61,1.24-.39.48-.73,1-1.01,1.55-.24.44-.47.89-.69,1.32l-.09.17c-2.17,4.2-4.25,8.46-6.19,12.67l-.03.06c-.21.46-.44.94-.65,1.42-.14.32-.29.66-.41,1.01-.36.96-.47,2-.33,3.02.15,1.03.57,2,1.21,2.82.64.82,1.49,1.46,2.45,1.85.73.29,1.51.45,2.29.44.25,0,.49-.01.74-.04.99-.13,1.95-.45,2.82-.95,1.14-.64,2.26-1.58,3.49-2.91,1.23,1.34,2.35,2.27,3.49,2.91.87.5,1.83.82,2.82.95.25.03.49.04.74.04.79,0,1.56-.15,2.29-.44.96-.39,1.81-1.03,2.45-1.85.64-.82,1.06-1.79,1.21-2.82.14-1.02.03-2.05-.33-3.02ZM13.05,21.33c-1.52-1.93-2.49-3.71-2.84-5.21-.14-.56-.17-1.14-.1-1.72.06-.42.21-.82.45-1.17.29-.38.67-.69,1.1-.9.43-.21.9-.32,1.38-.32.48,0,.95.11,1.38.32.43.21.81.52,1.1.9.24.35.39.75.45,1.17.08.57.04,1.16-.1,1.72-.34,1.5-1.32,3.29-2.84,5.21ZM24.27,22.64c-.1.72-.4,1.4-.84,1.97-.45.57-1.04,1.02-1.71,1.29-.68.27-1.42.37-2.15.28-.76-.1-1.49-.35-2.15-.73-1.01-.57-2.04-1.44-3.19-2.72,1.84-2.26,2.98-4.35,3.41-6.21.19-.78.23-1.59.12-2.39-.1-.69-.35-1.34-.75-1.91-.46-.62-1.05-1.12-1.74-1.47-.69-.35-1.45-.53-2.22-.53s-1.53.18-2.22.53c-.69.35-1.28.85-1.74,1.47-.39.57-.64,1.23-.75,1.91-.11.8-.07,1.61.12,2.39.42,1.86,1.57,3.95,3.41,6.21-1.15,1.28-2.18,2.15-3.19,2.72-.66.39-1.39.64-2.15.73-.73.09-1.47,0-2.15-.28-.67-.27-1.26-.72-1.71-1.29-.45-.57-.74-1.25-.84-1.97-.1-.73-.01-1.48.25-2.17.1-.28.22-.56.36-.89.21-.46.42-.94.63-1.39l.03-.06c1.93-4.18,4-8.42,6.16-12.6l.09-.17c.22-.43.45-.87.68-1.29.22-.44.48-.85.79-1.24.27-.33.61-.59,1-.77.39-.18.81-.28,1.23-.28.43,0,.85.09,1.23.28.39.18.73.45,1,.77.31.38.57.8.79,1.23.23.42.45.86.67,1.28l.09.18c2.16,4.18,4.23,8.42,6.16,12.6l.02.04c.21.46.44.94.65,1.42.15.33.26.61.36.89.26.69.35,1.43.25,2.17Z"/></g></svg>