<?xml version="1.0" encoding="UTF-8"?>
<svg id="Layer_2" data-name="Layer 2" xmlns="http://www.w3.org/2000/svg" version="1.1" viewBox="0 0 79.9 90.5">
  <defs>
    <style>
      .cls-1 {
        fill: #ff385c;
        stroke-width: 0px;
      }
    </style>
  </defs>
  <g id="Layer_2-2" data-name="Layer 2-2">
    <path class="cls-1" d="M46.5,45.8c-3.6,2.2-6,4.8-7.8,4.5-1.9-.4-4.7-3.7-4.5-5.5.1-1.8,3.4-4.6,5.4-4.7,1.8,0,3.8,2.9,7,5.7h0Z"/>
    <path class="cls-1" d="M33.3,38.5c-2.9,1.9-4.9,4.3-6.3,3.9-1.8-.5-3-3.1-4.4-4.8,1.6-1.4,3.2-3.8,4.8-3.8,1.6,0,3.2,2.4,5.9,4.6Z"/>
    <path class="cls-1" d="M51.1,31.8c2.1,2.9,4.5,4.8,4.2,6.2-.4,1.8-2.9,3.2-4.5,4.7-1.4-1.6-3.8-3.1-4-4.7,0-1.6,2.2-3.3,4.3-6.2h0Z"/>
    <path class="cls-1" d="M45.5,31c-3,2.1-4.8,4.4-6.5,4.4-1.5,0-4.3-2.9-4.1-4.1.3-1.8,2.6-4.1,4.3-4.4,1.4-.3,3.3,2.1,6.3,4.2Z"/>
    <path class="cls-1" d="M27,45.9c2.1,2.8,4.4,4.5,4.3,6.1,0,1.6-2.5,3.1-3.9,4.7-1.6-1.5-4.2-2.8-4.5-4.6-.3-1.4,2.1-3.4,4.1-6.2h0Z"/>
    <path class="cls-1" d="M57.3,52c-2.7,2.1-4.3,4.4-5.9,4.4-1.7,0-3.2-2.4-4.8-3.8,1.5-1.7,2.7-4.3,4.5-4.8,1.3-.3,3.4,2.1,6.2,4.1h0Z"/>
    <path class="cls-1" d="M45.4,59.5c-2.8,1.9-4.6,4.1-6.2,3.9-1.6-.2-3-2.6-4.5-4.1,1.6-1.6,3-4.1,4.8-4.5,1.3-.2,3.2,2.4,6,4.6h0Z"/>
    <path class="cls-1" d="M44.6,16.9c-2.5,1.9-4.1,4-5.2,3.8-1.5-.4-3.5-2.3-3.8-3.8-.2-1,2.1-3.4,3.5-3.5,1.3-.2,2.8,1.8,5.5,3.6h0Z"/>
    <path class="cls-1" d="M20.7,59.4c-2.6,1.8-4.1,3.7-5.4,3.6-1.4-.2-3.7-2.5-3.5-3.5.3-1.5,2.2-3.5,3.7-3.8,1.1-.2,2.7,1.8,5.2,3.7h0Z"/>
    <path class="cls-1" d="M68.6,59.1c-2.5,1.9-4,3.9-5.3,3.8-1.4,0-3.9-2.3-3.7-3.2.3-1.6,2-3.6,3.6-4,1.1-.3,2.8,1.7,5.4,3.5h0Z"/>
    <path class="cls-1" d="M26.9,71.9c-1.6-2.7-3.5-4.4-3.3-5.6.4-1.5,2.5-2.6,3.9-3.9,1.1,1.4,3,2.8,3.1,4.2,0,1.4-1.9,2.8-3.7,5.3Z"/>
    <path class="cls-1" d="M51.2,72c-1.8-2.6-3.7-4-3.7-5.4,0-1.4,2-2.7,3.2-4.1,1.4,1.3,3.5,2.4,3.8,4,.3,1.2-1.6,2.9-3.3,5.6h0Z"/>
    <path class="cls-1" d="M39.3,79c-1.8-2.6-3.7-4.1-3.7-5.5,0-1.4,2-2.8,3.2-4.2,1.4,1.3,3.5,2.4,3.8,4,.3,1.2-1.6,2.9-3.3,5.6h0Z"/>
    <path class="cls-1" d="M68.6,45c-2.6,1.9-4.2,4-5.3,3.8-1.5-.3-2.7-2.4-4-3.7,1.2-1.2,2.4-3.3,3.8-3.5,1.3-.2,2.9,1.6,5.6,3.4Z"/>
    <path class="cls-1" d="M20.8,45.1c-2.6,1.9-4.3,3.9-5.4,3.7-1.5-.4-2.7-2.4-4-3.8,1.3-1.2,2.4-3.2,3.8-3.4,1.3-.2,2.8,1.7,5.5,3.5h0Z"/>
    <path class="cls-1" d="M32.7,24.2c-2.7,1.8-4.4,3.8-5.5,3.5-1.5-.4-3.3-2.5-3.5-4-.1-.9,2.3-3.1,3.7-3.2,1.3,0,2.8,1.9,5.3,3.8Z"/>
    <path class="cls-1" d="M51.2,18.4c1.7,2.7,3.6,4.4,3.3,5.6-.4,1.5-2.5,2.6-3.9,3.9-1.1-1.4-3.1-2.7-3.1-4.1,0-1.4,1.8-2.8,3.7-5.4Z"/>
    <path class="cls-1" d="M15,36.9c-1.8-2.8-3.5-4.4-3.3-5.7.2-1.4,2.2-2.6,3.4-3.9,1.3,1.4,3.3,2.6,3.6,4.1.2,1.2-1.8,2.8-3.7,5.5h0Z"/>
    <path class="cls-1" d="M68.6,30.8c-2.6,2-4.1,4.1-5.2,3.9-1.5-.3-2.8-2.3-4.1-3.6,1.2-1.3,2.3-3.3,3.7-3.5,1.3-.2,2.9,1.6,5.6,3.3Z"/>
    <path class="cls-1" d="M79.3,38c-1.8,1.5-2.9,3.2-4,3.2-1.1,0-3.3-1.9-3.2-2.6.3-1.4,1.6-3.1,2.9-3.5.8-.3,2.3,1.5,4.2,2.9h0Z"/>
    <path class="cls-1" d="M7.4,38.2c-1.8,1.5-3.3,3.3-4.1,3.1-1.3-.4-2.2-2.2-3.3-3.4,1.1-1,2.2-2.7,3.3-2.8,1.1,0,2.3,1.6,4.1,3.1h0Z"/>
    <path class="cls-1" d="M3,28.5c-1.4-2-3.1-3.5-2.8-4.4.4-1.3,2.2-2.2,3.4-3.3.9,1.2,2.5,2.3,2.5,3.5,0,1.1-1.6,2.3-3.1,4.1h0Z"/>
    <path class="cls-1" d="M74.8,19.7c1.5,1.8,3.3,3.1,3.1,4.1-.2,1.3-2,2.4-3,3.5-1-1.1-2.8-2.1-2.9-3.2,0-1.1,1.4-2.4,2.8-4.4Z"/>
    <path class="cls-1" d="M3.1,56.6c-1.4-1.9-3.1-3.3-2.9-4.3.3-1.3,2.1-2.2,3.3-3.3.9,1.1,2.6,2.2,2.6,3.4,0,1.2-1.6,2.3-3,4.2h0Z"/>
    <path class="cls-1" d="M78.5,53.2c-1.3.8-2.9,2.5-3.7,2.1-1.3-.5-1.9-2.4-2.9-3.7,1.2-.8,2.4-2.2,3.6-2.3,1.4,0,2.9,1,4.4,1.6-.5.8-1,1.5-1.4,2.3Z"/>
    <path class="cls-1" d="M19.4,17c-1.8,1.4-3,3-4.1,3-1.2,0-2.3-1.7-3.4-2.6,1.1-1.2,1.9-3,3.2-3.4.8-.3,2.3,1.6,4.2,3Z"/>
    <path class="cls-1" d="M63.3,12.6c1.3,2,3,3.5,2.7,4.4-.3,1.2-2.2,2.1-3.4,3.1-.9-1.1-2.5-2.3-2.5-3.4,0-1.2,1.7-2.3,3.2-4.1h0Z"/>
    <path class="cls-1" d="M55.4,9.8c-1.9,1.5-3.1,3.2-4.1,3.1-1.2,0-3.1-1.7-3.1-2.7s1.6-3,2.8-3.2c1.1-.2,2.4,1.4,4.5,2.8h0Z"/>
    <path class="cls-1" d="M43.4,3.4c-2.1,1.2-3.5,2.7-4.6,2.5-1.1-.2-2-2-2.9-3.2,1.1-1,2.3-2.7,3.4-2.7s2.2,1.8,4.1,3.4Z"/>
    <path class="cls-1" d="M7.5,66.4c-2,1.4-3.3,3.1-4.4,3-1.2-.2-2.9-2-2.9-3.1,0-1,1.9-2.7,3-2.8,1.1,0,2.3,1.5,4.3,3Z"/>
    <path class="cls-1" d="M74.7,70.8c-1.3-2.1-2.8-3.5-2.6-4.6.2-1.1,2.1-2.7,3.2-2.7,1,0,2.7,2,2.7,3.1,0,1.1-1.7,2.3-3.2,4.2h0Z"/>
    <path class="cls-1" d="M27.2,5.5c1.4,2.1,2.9,3.4,2.8,4.5-.1,1.1-1.9,2.1-3,3.1-1-1.1-2.8-2.1-2.8-3.2,0-1.1,1.6-2.4,3.1-4.3h0Z"/>
    <path class="cls-1" d="M14.9,77.8c-1.3-2.1-2.8-3.5-2.7-4.6.2-1.1,2.1-2.8,3.2-2.7,1,0,2.7,2,2.7,3.1,0,1.1-1.6,2.3-3.2,4.2h0Z"/>
    <path class="cls-1" d="M62.8,68.9c1.6,1.9,3.3,3.1,3.2,4.2,0,1.2-1.8,2.3-2.8,3.4-1.1-1-2.9-1.9-3.1-3-.2-1.1,1.4-2.4,2.7-4.5Z"/>
    <path class="cls-1" d="M27.2,84.8c-1.5-2-3.1-3.2-3-4.3,0-1.1,1.8-2.9,2.9-3,1,0,2.8,1.7,3,2.9.1,1.1-1.4,2.4-2.8,4.4Z"/>
    <path class="cls-1" d="M51.1,76c1.4,2,3,3.3,2.9,4.4-.1,1.2-1.9,2.1-3,3.2-1-1.1-2.8-2.1-2.9-3.2-.1-1.1,1.5-2.3,3-4.3h0Z"/>
    <path class="cls-1" d="M39.1,83c1.4,2,3.1,3.3,3,4.3-.1,1.2-1.9,2.1-2.9,3.2-1-1.1-2.8-2-3-3.2-.1-1.1,1.5-2.4,2.9-4.3h0Z"/>
  </g>
</svg>